<svg width="18" height="18" viewBox="0 0 18 18" fill="none" xmlns="http://www.w3.org/2000/svg">
<rect width="18" height="18" fill="white"/>
<rect x="7.84888" y="12.6646" width="2.39266" height="2.71951" fill="white" stroke="#A9A9A9" stroke-width="0.5"/>
<rect x="5.22742" y="15.3964" width="7.5452" height="1.35366" rx="0.676829" fill="white" stroke="#A9A9A9" stroke-width="0.5"/>
<rect x="1.25" y="1.25" width="15.5" height="11.3049" rx="0.75" fill="white" stroke="#A9A9A9" stroke-width="0.5"/>
<path d="M3.77967 6.82478L6.60778 8.06882V8.93965L3.25989 7.25575V6.7448L3.77967 6.82478ZM6.60778 5.80289L3.78376 7.0647L3.25989 7.1269V6.61151L6.60778 4.93206V5.80289Z" fill="#636363"/>
<path d="M10.4427 3.34146L7.95839 10.3659H7.30764L9.79605 3.34146H10.4427Z" fill="#636363"/>
<path d="M14.1548 7.0025L11.2449 5.77178V4.92317L14.7401 6.60263V7.12246L14.1548 7.0025ZM11.2449 8.08659L14.163 6.82922L14.7401 6.73592V7.25131L11.2449 8.9352V8.08659Z" fill="#636363"/>
</svg>
