<svg xmlns="http://www.w3.org/2000/svg" width="256" height="256" viewBox="0 0 100 100"><rect width="100" height="100" rx="50" fill="#b1b1b1"></rect><path d="M81.79 50.05L81.79 50.05Q81.79 57.29 79.50 63.34Q77.20 69.39 73.02 73.76Q68.83 78.13 62.96 80.53Q57.09 82.94 49.98 82.94L49.98 82.94Q42.87 82.94 37.02 80.53Q31.17 78.13 26.98 73.76Q22.80 69.39 20.50 63.34Q18.21 57.29 18.21 50.05L18.21 50.05Q18.21 42.80 20.50 36.75Q22.80 30.70 26.98 26.31Q31.17 21.92 37.02 19.49Q42.87 17.06 49.98 17.06L49.98 17.06Q57.09 17.06 62.96 19.49Q68.83 21.92 73.02 26.31Q77.20 30.70 79.50 36.75Q81.79 42.80 81.79 50.05ZM72.84 50.05L72.84 50.05Q72.84 44.11 71.22 39.38Q69.60 34.66 66.63 31.39Q63.66 28.13 59.43 26.38Q55.20 24.62 49.98 24.62L49.98 24.62Q44.80 24.62 40.57 26.38Q36.34 28.13 33.35 31.39Q30.36 34.66 28.74 39.38Q27.12 44.11 27.12 50.05L27.12 50.05Q27.12 55.98 28.74 60.69Q30.36 65.39 33.35 68.65Q36.34 71.92 40.57 73.65Q44.80 75.38 49.98 75.38L49.98 75.38Q55.20 75.38 59.43 73.65Q63.66 71.92 66.63 68.65Q69.60 65.39 71.22 60.69Q72.84 55.98 72.84 50.05Z" fill="#000000"></path></svg>