<svg width="22" height="22" viewBox="0 0 22 22" fill="none" xmlns="http://www.w3.org/2000/svg">
<path d="M4.95007 22H0.275059V7.2875H4.95007V22ZM2.61257 5.225C1.10007 5.225 6.29425e-05 4.125 6.29425e-05 2.6125C6.29425e-05 1.1 1.23757 0 2.61257 0C4.12507 0 5.22507 1.1 5.22507 2.6125C5.22507 4.125 4.12507 5.225 2.61257 5.225ZM22.0001 22H17.3251V14.025C17.3251 11.6875 16.3626 11 14.9876 11C13.6126 11 12.2376 12.1 12.2376 14.1625V22H7.56256V7.2875H11.9626V9.35C12.3751 8.3875 14.0251 6.875 16.3626 6.875C18.9751 6.875 21.7251 8.3875 21.7251 12.925V22H22.0001Z" fill="url(#paint0_linear_359_23)"/>
<defs>
<linearGradient id="paint0_linear_359_23" x1="11" y1="0" x2="11" y2="22" gradientUnits="userSpaceOnUse">
<stop stop-color="#B629F8"/>
<stop offset="1" stop-color="#800ADD"/>
</linearGradient>
</defs>
</svg>
