<svg width="179" height="227" viewBox="0 0 179 227" fill="none" xmlns="http://www.w3.org/2000/svg">
<rect x="76.3249" y="120.822" width="27.3616" height="28.3729" fill="white" stroke="#A9A9A9" stroke-width="5"/>
<rect x="46.9972" y="149.138" width="85.0057" height="14.2147" rx="3.5" fill="white" stroke="#A9A9A9" stroke-width="5"/>
<rect x="2.5" y="2.5" width="174" height="117.367" rx="12.5" fill="white" stroke="#A9A9A9" stroke-width="5"/>
<path d="M30.9755 60.3612C31.0565 60.3728 31.1359 60.3942 31.2118 60.4251L62.1144 73.0204C62.4909 73.1738 62.737 73.5399 62.737 73.9464V80.7317C62.737 81.4631 61.9775 81.947 61.3146 81.6381L25.8601 65.1151C25.5077 64.9509 25.2825 64.5975 25.2825 64.2087V60.7023C25.2825 60.0938 25.8213 59.6264 26.4236 59.7123L30.9755 60.3612ZM62.737 49.1176C62.737 49.5221 62.4933 49.8868 62.1195 50.0415L31.2749 62.8111C31.1876 62.8472 31.0957 62.8708 31.0018 62.8812L26.3918 63.3883C25.7998 63.4535 25.2825 62.9899 25.2825 62.3943V58.8059C25.2825 58.4168 25.5082 58.063 25.861 57.8991L61.3155 41.4197C61.9783 41.1116 62.737 41.5956 62.737 42.3266V49.1176Z" fill="#636363"/>
<path d="M104.188 24.2712C104.889 24.2712 105.372 24.9732 105.122 25.6278L78.0926 96.4413C77.9447 96.8288 77.573 97.0847 77.1583 97.0847H72.0196C71.3187 97.0847 70.8353 96.3823 71.0856 95.7276L98.16 24.9141C98.308 24.5269 98.6795 24.2712 99.094 24.2712H104.188Z" fill="#636363"/>
<path d="M147.261 62.2382C147.2 62.2266 147.141 62.2094 147.083 62.1868L115.25 49.7124C114.867 49.5622 114.615 49.1928 114.615 48.7813V42.2067C114.615 41.4828 115.36 40.9987 116.021 41.2932L153.124 57.8117C153.485 57.9723 153.718 58.3303 153.718 58.7253V62.2565C153.718 62.8836 153.147 63.356 152.531 63.239L147.261 62.2382ZM114.615 74.1358C114.615 73.7267 114.864 73.3588 115.244 73.2071L147.154 60.4677C147.225 60.4391 147.3 60.4189 147.376 60.4075L152.569 59.6295C153.174 59.5389 153.718 60.0072 153.718 60.6185V64.1512C153.718 64.5458 153.485 64.9035 153.125 65.0643L116.022 81.6266C115.361 81.9218 114.615 81.4378 114.615 80.7134V74.1358Z" fill="#636363"/>
<path d="M38.5912 200.832L38.66 206.127C38.4766 209.474 38.064 212.293 37.4221 214.586C36.7803 216.878 35.5196 218.964 33.6399 220.844C30.5224 223.961 25.9837 225.52 20.0237 225.52C13.0094 225.52 8.19559 224.603 5.58239 222.769C2.96919 220.889 1.66259 217.52 1.66259 212.66V176.557H20.7114C26.2129 176.557 30.5224 178.115 33.6399 181.233C36.1614 183.754 37.6514 186.826 38.1098 190.448C38.4307 193.015 38.5912 196.477 38.5912 200.832ZM26.9694 213.967C27.8404 212.912 28.3906 211.468 28.6198 209.634C28.8949 207.755 29.0324 204.843 29.0324 200.901C29.0324 196.958 28.8949 194.116 28.6198 192.373C28.3906 190.585 27.8404 189.164 26.9694 188.11C25.3189 186.093 22.9349 185.084 19.8174 185.084H11.2214V212.179C11.2214 214.013 11.8403 215.273 13.0781 215.961C14.316 216.649 16.5166 216.992 19.6799 216.992C22.8891 216.992 25.3189 215.984 26.9694 213.967Z" fill="#636363"/>
<path d="M55.7269 216.305C56.4604 216.992 56.8272 218.482 56.8272 220.775C56.8272 223.067 56.4604 224.58 55.7269 225.313C55.0392 226.047 53.5492 226.414 51.2569 226.414C48.9647 226.414 47.4518 226.047 46.7182 225.313C45.9847 224.58 45.6179 223.067 45.6179 220.775C45.6179 218.482 45.9847 216.992 46.7182 216.305C47.4518 215.571 48.9647 215.205 51.2569 215.205C53.5492 215.205 55.0392 215.571 55.7269 216.305Z" fill="#636363"/>
<path d="M103.172 198.769V202.482C103.172 210.689 101.613 216.649 98.4954 220.362C95.4238 224.076 90.4725 225.932 83.6415 225.932C76.8105 225.932 71.8592 224.076 68.7875 220.362C65.7617 216.649 64.2488 210.62 64.2488 202.276V198.7C64.2488 191.09 65.7846 185.428 68.8563 181.714C71.9738 178.001 76.8792 176.144 83.5727 176.144C90.312 176.144 95.2633 178.024 98.4267 181.783C101.59 185.542 103.172 191.204 103.172 198.769ZM93.6129 202.276V199.732C93.6129 195.33 93.0627 191.823 91.9624 189.21C90.6788 186.184 87.928 184.671 83.7102 184.671C79.4466 184.671 76.6729 186.184 75.3893 189.21C74.3348 191.686 73.8076 195.193 73.8076 199.732V202.276C73.8076 208.19 74.6328 212.179 76.2833 214.242C76.9251 215.113 77.8649 215.869 79.1028 216.511C80.3864 217.107 81.8993 217.405 83.6415 217.405C85.4294 217.405 86.9424 217.107 88.1802 216.511C89.418 215.915 90.3808 215.182 91.0685 214.311C91.7561 213.439 92.2834 212.293 92.6501 210.872C93.292 208.626 93.6129 205.76 93.6129 202.276Z" fill="#636363"/>
<path d="M120.264 216.305C120.998 216.992 121.365 218.482 121.365 220.775C121.365 223.067 120.998 224.58 120.264 225.313C119.577 226.047 118.087 226.414 115.794 226.414C113.502 226.414 111.989 226.047 111.256 225.313C110.522 224.58 110.155 223.067 110.155 220.775C110.155 218.482 110.522 216.992 111.256 216.305C111.989 215.571 113.502 215.205 115.794 215.205C118.087 215.205 119.577 215.571 120.264 216.305Z" fill="#636363"/>
<path d="M167.984 196.293L159.182 214.861C157.898 217.336 156.294 218.574 154.368 218.574C152.488 218.574 150.907 217.268 149.623 214.654L140.683 196.293V225.52H131.124V176.557H134.304C138.124 176.557 141.61 178.732 143.288 182.163L154.368 204.82L165.385 182.181C167.059 178.74 170.55 176.557 174.377 176.557H177.543V225.52H167.984V196.293Z" fill="#636363"/>
</svg>
