<svg width="23" height="22" viewBox="0 0 23 22" fill="none" xmlns="http://www.w3.org/2000/svg">
<path d="M13.4645 5.25L13.6398 4.2655C13.2016 4.18743 12.7645 4.40846 12.5676 4.80773C12.3707 5.20699 12.4614 5.68832 12.7902 5.98849L13.4645 5.25ZM17.2499 8.70625L16.5756 9.44474C16.8966 9.73784 17.3702 9.78998 17.7473 9.57374C18.1244 9.35749 18.3186 8.92239 18.2278 8.49728L17.2499 8.70625ZM13.4645 1.75L13.5654 0.755105C13.1362 0.711571 12.7275 0.948178 12.5515 1.34204C12.3755 1.7359 12.4719 2.19823 12.7907 2.48891L13.4645 1.75ZM21.0832 8.6975L20.4094 9.43641C20.7186 9.71833 21.1706 9.77798 21.5423 9.5859C21.914 9.39382 22.1268 8.99063 22.0757 8.57535L21.0832 8.6975ZM20.1249 18.305L19.1249 18.305L19.1249 18.3094L20.1249 18.305ZM18.0357 20.055L17.937 21.0501C17.9425 21.0507 17.948 21.0512 17.9535 21.0516L18.0357 20.055ZM9.7653 17.3687L10.2748 16.5082L10.2671 16.5038L9.7653 17.3687ZM4.0153 12.1187L4.83612 11.5475L4.83087 11.5401L4.0153 12.1187ZM1.07321 4.5325L0.0780772 4.63099C0.0786397 4.63668 0.079251 4.64235 0.0799108 4.64803L1.07321 4.5325ZM2.9803 2.625L2.9803 1.625L2.97944 1.625L2.9803 2.625ZM5.8553 2.625L5.8553 3.62504L5.86428 3.62496L5.8553 2.625ZM7.77196 4.13L8.76174 3.98703L8.76019 3.97702L7.77196 4.13ZM8.4428 6.58875L7.51712 6.96707L7.5181 6.96945L8.4428 6.58875ZM8.01155 8.435L8.68583 9.1735L8.68992 9.16971L8.01155 8.435ZM6.79446 9.54625L6.12019 8.80776C5.76417 9.13283 5.69076 9.66565 5.94562 10.0749L6.79446 9.54625ZM12.5445 14.7962L12.0837 15.6838C12.4559 15.877 12.9091 15.8175 13.2187 15.5347L12.5445 14.7962ZM13.7615 13.685L13.0914 12.9428L13.0873 12.9465L13.7615 13.685ZM15.7836 13.2912L15.459 14.2371L15.4611 14.2378L15.7836 13.2912ZM18.4765 13.9037L18.6043 12.9119L18.5961 12.9109L18.4765 13.9037ZM13.2891 6.2345C14.8492 6.51242 15.9927 7.60815 16.272 8.91522L18.2278 8.49728C17.76 6.30787 15.9092 4.66975 13.6398 4.2655L13.2891 6.2345ZM17.9242 7.96776L14.1387 4.51151L12.7902 5.98849L16.5756 9.44474L17.9242 7.96776ZM13.3636 2.7449C16.9658 3.11028 19.7049 5.68498 20.0907 8.81965L22.0757 8.57535C21.5615 4.39684 17.9739 1.20227 13.5654 0.755105L13.3636 2.7449ZM21.757 7.95859L14.1383 1.01109L12.7907 2.48891L20.4094 9.43641L21.757 7.95859ZM19.1249 15.68V18.305H21.1249V15.68H19.1249ZM19.1249 18.3094C19.1257 18.4872 19.0453 18.6814 18.8618 18.835L20.1461 20.3682C20.758 19.8557 21.1285 19.1083 21.1249 18.3006L19.1249 18.3094ZM18.8618 18.835C18.6746 18.9918 18.4047 19.082 18.118 19.0584L17.9535 21.0516C18.7417 21.1167 19.5379 20.8777 20.1461 20.3682L18.8618 18.835ZM18.1344 19.0599C15.3269 18.7814 12.635 17.9058 10.2748 16.5083L9.25581 18.2292C11.8732 19.779 14.8466 20.7435 17.937 21.0501L18.1344 19.0599ZM10.2671 16.5038C8.07305 15.2308 6.22059 13.5369 4.83608 11.5475L3.19451 12.69C4.75274 14.9289 6.82655 16.8198 9.26346 18.2337L10.2671 16.5038ZM4.83087 11.5401C3.30564 9.39041 2.36112 6.94995 2.06652 4.41697L0.0799108 4.64803C0.41444 7.52429 1.48575 10.2817 3.19973 12.6974L4.83087 11.5401ZM2.06835 4.43401C2.05088 4.25749 2.11215 4.0638 2.27372 3.9022L0.859348 2.48814C0.295464 3.05215 -0.00129511 3.82904 0.0780772 4.63099L2.06835 4.43401ZM2.27372 3.9022C2.43919 3.73669 2.69374 3.62525 2.98116 3.625L2.97944 1.625C2.19083 1.62568 1.41932 1.92804 0.859348 2.48814L2.27372 3.9022ZM2.9803 3.625H5.8553V1.625H2.9803V3.625ZM5.86428 3.62496C6.39899 3.62015 6.7352 3.96946 6.78374 4.28298L8.76019 3.97702C8.53944 2.55098 7.23568 1.61255 5.84631 1.62504L5.86428 3.62496ZM6.78224 4.27297C6.91537 5.19464 7.16213 6.09845 7.51712 6.96706L9.36847 6.21043C9.07458 5.49132 8.87125 4.74548 8.76169 3.98703L6.78224 4.27297ZM7.5181 6.96945C7.61474 7.20419 7.56662 7.48473 7.33317 7.70028L8.68992 9.16971C9.50875 8.41368 9.79743 7.25235 9.3675 6.20805L7.5181 6.96945ZM7.33728 7.69651L6.12019 8.80776L7.46873 10.2847L8.68582 9.17348L7.33728 7.69651ZM5.94562 10.0749C7.40928 12.4251 9.53315 14.3596 12.0837 15.6838L13.0052 13.9087C10.7573 12.7417 8.90813 11.0486 7.64331 9.01761L5.94562 10.0749ZM13.2187 15.5347L14.4358 14.4235L13.0873 12.9465L11.8702 14.0578L13.2187 15.5347ZM14.4317 14.4272C14.6829 14.2004 15.0884 14.1099 15.459 14.2371L16.1083 12.3454C15.078 11.9918 13.9043 12.2088 13.0914 12.9428L14.4317 14.4272ZM15.4611 14.2378C16.397 14.5567 17.3685 14.7775 18.357 14.8966L18.5961 12.9109C17.7445 12.8084 16.9092 12.6183 16.1061 12.3447L15.4611 14.2378ZM18.3488 14.8956C18.8768 14.9636 19.1335 15.3484 19.1252 15.6528L21.1245 15.7072C21.1645 14.235 20.0036 13.0922 18.6043 12.9119L18.3488 14.8956Z" fill="url(#paint0_linear_362_2)"/>
<defs>
<linearGradient id="paint0_linear_362_2" x1="11.0743" y1="1.75" x2="11.0743" y2="20.0621" gradientUnits="userSpaceOnUse">
<stop stop-color="#B629F8"/>
<stop offset="1" stop-color="#800ADD"/>
</linearGradient>
</defs>
</svg>
